<?xml version="1.0" encoding="iso-8859-1"?>
<!-- Uploaded to: SVG Repo, www.svgrepo.com, Generator: SVG Repo Mixer Tools -->
<svg height="800px" width="800px" version="1.1" id="Capa_1" xmlns="http://www.w3.org/2000/svg" xmlns:xlink="http://www.w3.org/1999/xlink" 
	 viewBox="0 0 15.133 15.133" xml:space="preserve">
<g>
	<path style="fill:#030104;" d="M14.487,0H0.647C0.306,0,0.028,0.277,0.028,0.619v2.165c0,0.342,0.277,0.619,0.619,0.619h0.966
		h0.074h0.902l-0.726,10.54c0,0.654,0.532,1.186,1.186,1.188l9.033,0.002c0.653,0,1.188-0.53,1.188-1.187L12.552,3.402h0.891
		c0.005,0,0.008-0.002,0.013-0.002v0.002h1.031c0.341,0,0.618-0.277,0.618-0.619V0.619C15.105,0.277,14.828,0,14.487,0z
		 M7.883,14.339L3.05,14.337c-0.218,0-0.395-0.178-0.395-0.396L3.441,2.518c0-0.218,0.178-0.395,0.396-0.395l4.051,0.001
		L7.883,14.339z M12.084,14.339h-1.062L10.246,2.125h1.061c0.22,0,0.396,0.177,0.396,0.395l0.776,11.424
		C12.478,14.164,12.301,14.341,12.084,14.339z M12.524,2.963L12.524,2.963l-0.03-0.442c0-0.655-0.531-1.187-1.188-1.187L3.837,1.331
		c-0.654,0-1.187,0.532-1.187,1.186L2.62,2.965H2.619H1.717l0.006-0.084c0.02-1.148,0.96-2.077,2.113-2.077l7.47,0.003
		c0.564,0,1.096,0.22,1.496,0.62c0.391,0.392,0.609,0.908,0.617,1.459l0.006,0.077C13.425,2.963,12.524,2.963,12.524,2.963z
		 M3.387,10.312l1.075-0.009l0.025,3.125l-1.074,0.009L3.387,10.312z"/>
</g>
</svg>